<?xml version="1.0" standalone="no"?>
<!DOCTYPE svg PUBLIC "-//W3C//DTD SVG 20010904//EN"
 "http://www.w3.org/TR/2001/REC-SVG-20010904/DTD/svg10.dtd">
<svg version="1.0" xmlns="http://www.w3.org/2000/svg"
 width="500.000000pt" height="500.000000pt" viewBox="0 0 500.000000 500.000000"
 preserveAspectRatio="xMidYMid meet">

<g transform="translate(0.000000,500.000000) scale(0.100000,-0.100000)"
fill="#000000" stroke="none">
<path d="M2451 3847 c-13 -23 -90 -157 -171 -297 -81 -140 -222 -383 -312
-539 -91 -157 -169 -286 -175 -288 -9 -3 -93 127 -93 143 0 5 -62 108 -70 114
-3 3 -18 30 -34 60 -16 30 -53 93 -81 140 -28 47 -78 132 -111 189 -32 57 -68
120 -80 140 -11 20 -36 63 -54 96 -71 128 -67 121 -124 213 l-39 62 -444 0
-444 0 38 -67 c20 -38 41 -69 45 -71 4 -2 8 -8 8 -14 0 -5 15 -35 33 -66 78
-131 134 -229 152 -264 10 -20 23 -34 28 -31 6 4 7 1 3 -6 -5 -7 -2 -20 6 -29
8 -9 27 -39 43 -67 16 -27 31 -52 34 -55 3 -3 15 -23 27 -45 11 -22 35 -67 54
-100 18 -33 42 -76 53 -95 10 -19 34 -60 53 -91 19 -31 34 -62 34 -68 0 -6 5
-11 10 -11 6 0 10 -4 10 -10 0 -5 19 -40 42 -77 39 -64 67 -113 203 -348 30
-52 55 -97 55 -100 0 -3 15 -30 34 -59 18 -29 37 -62 40 -74 4 -12 12 -22 17
-22 5 0 9 -4 9 -10 0 -13 80 -143 94 -152 6 -5 216 -8 467 -8 l455 1 94 162
c457 787 570 985 570 996 0 5 -66 123 -146 263 -80 139 -178 309 -217 378 -38
69 -75 130 -81 137 -8 9 -17 2 -35 -30z"/>
<path d="M3970 3871 c0 -4 -11 -24 -24 -43 -12 -19 -37 -59 -53 -89 -16 -30
-55 -95 -86 -145 -32 -50 -57 -96 -57 -102 0 -7 -3 -12 -8 -12 -4 0 -14 -15
-21 -32 -8 -18 -30 -56 -48 -85 -18 -29 -33 -55 -33 -58 0 -4 -169 -295 -201
-345 -10 -17 -91 -157 -246 -430 -58 -102 -138 -239 -178 -305 -105 -174 -142
-240 -150 -264 l-6 -21 444 1 444 0 61 107 c33 59 61 111 60 116 0 5 4 12 10
15 5 3 34 51 66 106 31 55 60 107 66 115 31 51 132 221 150 255 11 22 25 47
30 55 69 115 148 260 142 260 -4 0 1 5 11 11 9 5 17 14 17 18 0 13 142 256
151 259 5 2 9 8 9 13 0 10 156 286 268 477 34 56 58 102 55 102 -3 0 0 7 7 15
11 13 -38 15 -434 15 -245 0 -446 -4 -446 -9z"/>
<path d="M2878 1577 c-31 -7 -75 -26 -97 -41 -118 -82 -153 -268 -75 -403 51
-89 160 -139 282 -130 177 13 276 118 277 293 0 70 -4 88 -30 139 -62 122
-201 177 -357 142z m162 -139 c27 -14 50 -36 62 -58 22 -42 24 -130 3 -170
-54 -104 -227 -103 -275 2 -41 90 -11 195 64 229 54 25 93 24 146 -3z"/>
<path d="M700 1558 c-77 -192 -100 -243 -111 -243 -7 0 -38 57 -68 128 l-54
127 -74 0 c-55 0 -73 -3 -73 -14 0 -28 256 -551 270 -551 8 0 36 53 70 133 31
74 60 134 65 134 5 0 34 -60 65 -133 31 -73 61 -134 68 -137 8 -2 36 46 73
125 34 70 92 193 130 272 38 79 69 150 69 157 0 11 -18 14 -74 14 l-73 0 -56
-127 c-31 -71 -62 -128 -68 -128 -7 0 -25 29 -39 65 -53 128 -89 200 -100 200
-6 0 -15 -10 -20 -22z"/>
<path d="M1210 1296 c0 -216 3 -275 13 -279 7 -3 89 -3 182 -2 125 3 170 7
176 17 13 20 10 84 -4 96 -7 6 -60 13 -118 14 l-104 3 0 30 0 30 100 5 100 5
3 44 c2 24 -2 49 -8 55 -6 6 -52 13 -103 16 l-92 5 0 55 0 55 104 3 c58 1 111
8 118 14 7 6 13 25 13 43 0 67 6 65 -196 65 l-184 0 0 -274z"/>
<path d="M1690 1296 c0 -252 1 -274 18 -278 24 -6 260 -1 299 7 73 13 130 97
116 169 -8 39 -38 83 -63 91 -23 7 -26 30 -7 42 48 29 62 123 27 180 -32 53
-72 63 -241 63 l-149 0 0 -274z m268 142 c16 -16 15 -53 -2 -67 -8 -7 -37 -11
-68 -9 -50 3 -53 5 -56 31 -6 49 3 57 61 57 29 0 58 -5 65 -12z m-8 -201 c32
-16 38 -57 12 -81 -15 -13 -33 -16 -73 -14 l-54 3 -3 39 c-2 21 -1 44 2 52 7
18 82 18 116 1z"/>
<path d="M2227 1564 c-10 -10 -8 -516 2 -532 8 -13 44 -17 113 -13 l27 1 3 93
3 92 93 3 92 3 0 53 c0 65 -2 66 -111 66 l-80 0 3 58 3 57 110 5 110 5 0 55 0
55 -181 3 c-99 1 -183 -1 -187 -4z"/>
<path d="M3366 1554 c-9 -25 -7 -507 3 -523 8 -12 64 -17 129 -12 8 1 12 26
12 90 0 81 2 90 20 96 38 12 56 -5 100 -94 24 -49 51 -91 59 -93 24 -6 130 -2
137 5 3 3 -17 49 -46 102 l-52 97 31 30 c52 51 67 157 32 234 -14 31 -30 47
-63 63 -39 19 -61 21 -200 21 -133 0 -157 -2 -162 -16z m284 -124 c27 -27 25
-46 -5 -76 -22 -21 -33 -25 -78 -22 l-52 3 -3 44 c-5 66 0 71 63 71 42 0 60
-5 75 -20z"/>
<path d="M3887 1563 c-9 -9 -9 -85 1 -100 4 -6 32 -13 62 -15 l55 -3 3 -204
c1 -113 7 -209 12 -215 9 -12 111 -12 130 -1 6 4 10 82 10 216 l0 209 59 0
c64 0 71 6 71 60 0 62 6 60 -204 60 -106 0 -196 -3 -199 -7z"/>
<path d="M4367 1564 c-13 -13 -8 -532 5 -540 17 -11 349 -7 360 4 5 5 8 31 6
58 l-3 49 -113 3 -113 3 3 32 3 32 95 5 95 5 3 45 c5 61 -11 70 -115 70 l-83
0 0 60 0 60 103 0 c56 0 108 4 115 9 9 5 12 25 10 57 l-3 49 -181 3 c-99 1
-183 -1 -187 -4z"/>
</g>
</svg>
